<?xml version="1.0" standalone="no"?><!DOCTYPE svg PUBLIC "-//W3C//DTD SVG 1.1//EN" "http://www.w3.org/Graphics/SVG/1.1/DTD/svg11.dtd"><svg t="1724834356877" class="icon" viewBox="0 0 1024 1024" version="1.1" xmlns="http://www.w3.org/2000/svg" p-id="7148" xmlns:xlink="http://www.w3.org/1999/xlink" width="200" height="200"><path d="M907.84 238.18666667H594.98666667c-45.65333333 0-82.98666667 32.10666667-82.98666667 71.36 0-39.25333333-37.33333333-71.36-82.98666667-71.36H116.16c-22.93333333 0-41.49333333 16-41.49333333 35.73333333v523.62666667c0 31.46666667 25.49333333 56.85333333 56.85333333 56.85333333h253.01333333c21.65333333 0 38.61333333 7.25333333 59.73333334 17.70666667 18.45333333 9.17333333 34.56 19.2 67.73333333 19.2s49.28-10.02666667 67.73333333-19.2c18.77333333-9.28 38.08-17.70666667 59.73333334-17.70666667h253.01333333c31.46666667 0 56.85333333-25.49333333 56.85333333-56.85333333V273.92c0-19.73333333-18.56-35.73333333-41.49333333-35.73333333z" fill="#A89082" p-id="7149"></path><path d="M512 901.97333333c-32.42666667 0-49.92-8.85333333-66.98666667-17.49333333-1.81333333-0.96-3.62666667-1.81333333-5.54666666-2.77333333-18.98666667-9.38666667-35.09333333-16.64-54.93333334-16.64H131.52c-37.22666667 0-67.52-30.29333333-67.52-67.52V273.92c0-25.6 23.36-46.4 52.16-46.4h312.74666667c36.05333333 0 67.30666667 17.92 82.98666666 44.05333333 15.68-26.13333333 47.04-44.05333333 82.98666667-44.05333333h312.74666667c28.8 0 52.16 20.8 52.16 46.4v523.62666667c0 37.22666667-30.29333333 67.52-67.52 67.52h-252.8c-19.73333333 0-37.97333333 8.21333333-54.93333334 16.64-1.92 0.96-3.73333333 1.92-5.54666666 2.77333333-17.06666667 8.53333333-34.66666667 17.49333333-66.98666667 17.49333333zM116.16 248.85333333c-16.96 0-30.82666667 11.2-30.82666667 25.06666667v523.62666667c0 25.49333333 20.69333333 46.18666667 46.18666667 46.18666666h253.01333333c24.42666667 0 43.62666667 8.53333333 64.42666667 18.77333334l5.76 2.88c16.10666667 8.10666667 29.97333333 15.25333333 57.28 15.25333333s41.17333333-7.04 57.28-15.14666667l5.76-2.88c19.30666667-9.49333333 40.10666667-18.77333333 64.42666667-18.77333333h253.01333333c25.49333333 0 46.18666667-20.69333333 46.18666667-46.18666667v-523.73333333c0-13.76-13.86666667-25.06666667-30.82666667-25.06666667H594.98666667c-39.89333333 0-72.32 27.2-72.32 60.69333334 0 5.86666667-4.8 10.66666667-10.66666667 10.66666666s-10.66666667-4.8-10.66666667-10.66666666c0-33.49333333-32.42666667-60.69333333-72.32-60.69333334H116.16z" fill="#543630" p-id="7150"></path><path d="M861.22666667 181.33333333H583.14666667c-39.14666667 0-71.14666667 32-71.14666667 71.14666667 0-39.14666667-32-71.14666667-71.14666667-71.14666667H162.77333333c-15.89333333 0-28.8 12.90666667-28.8 28.8v553.92c0 15.89333333 12.90666667 28.8 28.8 28.8h242.13333334c18.34666667 0 33.6 7.14666667 50.45333333 17.38666667 15.89333333 9.70666667 27.94666667 16.96 56.64 16.96s40.74666667-7.04 56.64-16.96c14.50666667-9.06666667 32.21333333-17.38666667 50.45333333-17.38666667h242.13333334c15.89333333 0 28.8-12.90666667 28.8-28.8V210.13333333c0-15.89333333-12.90666667-28.8-28.8-28.8z" fill="#FFFFFF" p-id="7151"></path><path d="M512 837.97333333c-31.78666667 0-45.86666667-8.53333333-62.18666667-18.56-15.57333333-9.49333333-29.22666667-15.89333333-44.90666666-15.89333333h-242.13333334c-21.76 0-39.46666667-17.70666667-39.46666666-39.46666667V210.13333333c0-21.76 17.70666667-39.46666667 39.46666666-39.46666666h278.08c30.4 0 57.06666667 16.74666667 71.14666667 41.38666666 14.08-24.74666667 40.64-41.38666667 71.14666667-41.38666666h278.08c21.76 0 39.46666667 17.70666667 39.46666666 39.46666666v553.92c0 21.76-17.70666667 39.46666667-39.46666666 39.46666667h-242.13333334c-13.22666667 0-27.94666667 5.12-44.8 15.78666667-17.92 11.30666667-31.89333333 18.66666667-62.29333333 18.66666666zM162.77333333 192c-10.02666667 0-18.13333333 8.10666667-18.13333333 18.13333333v553.92c0 10.02666667 8.10666667 18.13333333 18.13333333 18.13333334h242.13333334c21.97333333 0 39.89333333 9.06666667 56 18.98666666 15.14666667 9.28 25.28 15.36 51.09333333 15.36 26.56 0 36.8-6.4 50.88-15.36 20.37333333-12.8 38.82666667-19.09333333 56.21333333-19.09333333h242.13333334c10.02666667 0 18.13333333-8.10666667 18.13333333-18.13333333V210.13333333c0-10.02666667-8.10666667-18.13333333-18.13333333-18.13333333H583.14666667c-33.28 0-60.48 27.09333333-60.48 60.48 0 5.86666667-4.8 10.66666667-10.66666667 10.66666667s-10.66666667-4.8-10.66666667-10.66666667c0-33.28-27.09333333-60.48-60.48-60.48H162.77333333z" fill="#543630" p-id="7152"></path><path d="M512 246.50666667c0-38.72-31.36-70.4-69.97333333-71.04v621.44c4.37333333 2.24 8.85333333 4.8 13.33333333 7.46666666 15.89333333 9.70666667 27.94666667 16.96 56.64 16.96s40.74666667-7.04 56.64-16.96c4.58666667-2.88 9.38666667-5.65333333 14.50666667-8.10666666V175.36c-39.14666667 0-71.14666667 32-71.14666667 71.14666667z" fill="#EFE7DA" p-id="7153"></path><path d="M512 252.48v574.82666667" fill="#FFFFFF" p-id="7154"></path><path d="M512 837.97333333c-5.86666667 0-10.66666667-4.8-10.66666667-10.66666666V252.48c0-5.86666667 4.8-10.66666667 10.66666667-10.66666667s10.66666667 4.8 10.66666667 10.66666667v574.82666667c0 5.86666667-4.8 10.66666667-10.66666667 10.66666666z" fill="#543630" p-id="7155"></path><path d="M285.01333333 328.85333333l54.50666667 43.30666667h1.81333333V181.33333333H228.69333333v190.82666667h1.92z" fill="#FF6687" p-id="7156"></path><path d="M341.33333333 382.82666667h-1.81333333c-2.45333333 0-4.8-0.85333333-6.61333333-2.34666667l-47.78666667-37.97333333-47.78666667 37.97333333c-1.92 1.49333333-4.26666667 2.34666667-6.61333333 2.34666667h-1.81333333c-5.86666667 0-10.66666667-4.8-10.66666667-10.66666667V181.33333333c0-5.86666667 4.8-10.66666667 10.66666667-10.66666666H341.33333333c5.86666667 0 10.66666667 4.8 10.66666667 10.66666666v190.82666667c0 5.86666667-4.8 10.66666667-10.66666667 10.66666667zM239.36 192v159.46666667l39.04-31.04c3.84-3.09333333 9.38666667-3.09333333 13.22666667 0l39.04 31.04V192h-91.30666667z" fill="#543630" p-id="7157"></path><path d="M512 837.97333333c-31.78666667 0-45.86666667-8.53333333-62.18666667-18.56-15.57333333-9.49333333-29.22666667-15.89333333-44.90666666-15.89333333h-242.13333334c-21.76 0-39.46666667-17.70666667-39.46666666-39.46666667V210.13333333c0-21.76 17.70666667-39.46666667 39.46666666-39.46666666h278.08c30.4 0 57.06666667 16.74666667 71.14666667 41.38666666 14.08-24.74666667 40.64-41.38666667 71.14666667-41.38666666h278.08c21.76 0 39.46666667 17.70666667 39.46666666 39.46666666v553.92c0 21.76-17.70666667 39.46666667-39.46666666 39.46666667h-242.13333334c-13.22666667 0-27.94666667 5.12-44.8 15.78666667-17.92 11.30666667-31.89333333 18.66666667-62.29333333 18.66666666zM162.77333333 192c-10.02666667 0-18.13333333 8.10666667-18.13333333 18.13333333v553.92c0 10.02666667 8.10666667 18.13333333 18.13333333 18.13333334h242.13333334c21.97333333 0 39.89333333 9.06666667 56 18.98666666 15.14666667 9.28 25.28 15.36 51.09333333 15.36 26.56 0 36.8-6.4 50.88-15.36 20.37333333-12.8 38.82666667-19.09333333 56.21333333-19.09333333h242.13333334c10.02666667 0 18.13333333-8.10666667 18.13333333-18.13333333V210.13333333c0-10.02666667-8.10666667-18.13333333-18.13333333-18.13333333H583.14666667c-33.28 0-60.48 27.09333333-60.48 60.48 0 5.86666667-4.8 10.66666667-10.66666667 10.66666667s-10.66666667-4.8-10.66666667-10.66666667c0-33.28-27.09333333-60.48-60.48-60.48H162.77333333z" fill="#543630" p-id="7158"></path><path d="M221.65333333 551.14666667h174.18666667" fill="#A89082" p-id="7159"></path><path d="M395.84 561.81333333H221.65333333c-5.86666667 0-10.66666667-4.8-10.66666666-10.66666666s4.8-10.66666667 10.66666666-10.66666667h174.18666667c5.86666667 0 10.66666667 4.8 10.66666667 10.66666667s-4.8 10.66666667-10.66666667 10.66666666z" fill="#543630" p-id="7160"></path><path d="M221.65333333 636.48h105.49333334" fill="#A89082" p-id="7161"></path><path d="M327.14666667 647.14666667h-105.49333334c-5.86666667 0-10.66666667-4.8-10.66666666-10.66666667s4.8-10.66666667 10.66666666-10.66666667h105.49333334c5.86666667 0 10.66666667 4.8 10.66666666 10.66666667s-4.8 10.66666667-10.66666666 10.66666667z" fill="#543630" p-id="7162"></path><path d="M861.22666667 181.33333333h-38.72v611.52h38.72c15.89333333 0 28.8-12.90666667 28.8-28.8V210.13333333c0-15.89333333-12.90666667-28.8-28.8-28.8z" fill="#FFD527" p-id="7163"></path><path d="M861.22666667 803.52h-38.72c-5.86666667 0-10.66666667-4.8-10.66666667-10.66666667V181.33333333c0-5.86666667 4.8-10.66666667 10.66666667-10.66666666h38.72c21.76 0 39.46666667 17.70666667 39.46666666 39.46666666v553.92c0 21.76-17.70666667 39.46666667-39.46666666 39.46666667z m-28.05333334-21.33333333h28.05333334c10.02666667 0 18.13333333-8.10666667 18.13333333-18.13333334V210.13333333c0-10.02666667-8.10666667-18.13333333-18.13333333-18.13333333h-28.05333334v590.18666667z" fill="#543630" p-id="7164"></path></svg>